<?xml version="1.0" encoding="UTF-8"?>
<svg version="1.1" xmlns="http://www.w3.org/2000/svg" width="106" height="102">
<path d="M0 0 C34.98 0 69.96 0 106 0 C106 33.66 106 67.32 106 102 C71.02 102 36.04 102 0 102 C0 68.34 0 34.68 0 0 Z " fill="#0E0F0E" transform="translate(0,0)"/>
<path d="M0 0 C3.79348502 1.86026669 6.29927031 4.25897997 7.88671875 8.203125 C8.35213484 9.87109017 8.79213047 11.54628852 9.2109375 13.2265625 C12.97145733 26.44423122 22.13062843 37.83317635 33 46 C36.06363662 47.58652611 38.97261389 48.68360774 42.2578125 49.6953125 C46.92978057 51.16012097 50.39513949 52.50779138 54 56 C55.84330721 59.68661442 55.35620938 63.96720094 55 68 C53.38555441 71.79394713 51.46004275 73.81600138 48 76 C45.5625 76.36328125 45.5625 76.36328125 43 76.3125 C42.154375 76.30863281 41.30875 76.30476563 40.4375 76.30078125 C37.64289174 75.95593376 36.26448697 75.69951354 34 74 C32.58409619 71.52727727 31.36540649 69.14325322 30.1875 66.5625 C22.43154316 50.38455233 12.22507256 33.38717543 -5 26 C-6.299375 25.79375 -7.59875 25.5875 -8.9375 25.375 C-12.4882815 24.5321042 -13.95787515 23.33205213 -16 20.3125 C-18.08701036 16.4002399 -18.74274817 13.45648902 -18 9 C-14.03562599 1.36490932 -8.46757677 -1.72541376 0 0 Z " fill="#97BCE1" transform="translate(35,10)"/>
<path d="M0 0 C0.89203125 -0.06316406 1.7840625 -0.12632812 2.703125 -0.19140625 C7.54425491 1.00646307 10.54624546 3.81388069 13.75 7.5625 C15.65127671 10.8729463 16.98648028 14.3014406 18.3125 17.875 C23.47382015 30.73728473 29.59538531 40.91390796 41.6875 48.375 C44.37174436 49.41582944 46.97771059 50.18142107 49.75 50.9375 C55.76920177 52.68442623 59.02532129 55.11456893 62.6875 60.3125 C64.5118937 65.89299838 63.72149214 71.10339134 61.1875 76.375 C58.63679116 80.34893044 55.17061885 82.14723596 50.75 83.5625 C45.28220777 84.44125232 42.18805412 83.11059208 37.71630859 80.21459961 C34.25960911 77.31026817 32.67454207 73.60112639 30.8125 69.5625 C29.96996391 67.85618879 29.12094527 66.1530639 28.265625 64.453125 C27.84732422 63.62103516 27.42902344 62.78894531 26.99804688 61.93164062 C22.60531165 53.59300553 16.94427046 45.69282906 9.75 39.5625 C9.22148438 39.10488281 8.69296875 38.64726563 8.1484375 38.17578125 C4.69223401 35.44849272 1.36714058 34.00501665 -2.8125 32.625 C-8.06563024 30.84746212 -10.76997366 28.86674311 -14.25 24.5625 C-15.89785194 19.61894419 -15.96157593 14.70978759 -15.25 9.5625 C-11.96001373 3.32545763 -6.97674991 0.30897035 0 0 Z M-11.5625 9.3125 C-13.60283906 13.2420419 -13.92907915 15.18621213 -13.25 19.5625 C-11.74531318 23.48336661 -10.02311778 26.68754095 -6.16015625 28.59375 C-4.62035372 29.07806396 -3.0685032 29.52543645 -1.5078125 29.9375 C1.93645468 30.89093036 4.80422145 32.60077763 7.75 34.5625 C8.43707031 35.00980469 9.12414062 35.45710938 9.83203125 35.91796875 C20.84660196 43.73040507 27.34799383 54.84874033 32.9609375 66.8359375 C35.8823875 73.62874652 35.8823875 73.62874652 40.6953125 78.97265625 C45.24378743 80.27839715 50.40174631 80.786039 54.69921875 78.546875 C58.0860912 75.82425599 59.51223414 73.56652656 60.0234375 69.2578125 C60.27464383 63.5421033 60.27464383 63.5421033 57.5625 58.625 C56.634375 57.944375 55.70625 57.26375 54.75 56.5625 C54.028125 56.02625 53.30625 55.49 52.5625 54.9375 C49.97469163 53.67234924 47.70713439 52.98264029 44.9375 52.25 C33.57277203 48.95490136 25.08836793 39.12588445 19.4375 29.0625 C16.43820638 23.19684545 14.0475658 17.13481079 11.80078125 10.94921875 C10.27037132 7.47308318 8.0828779 5.27836723 4.75 3.5625 C-2.29057437 2.23619462 -6.94613238 3.82276553 -11.5625 9.3125 Z " fill="#214669" transform="translate(30.25,6.4375)"/>
<path d="M0 0 C3.70390021 2.02666238 5.65363011 3.48044516 8 7 C8.47364652 11.81540624 8.49199653 14.05114955 6.25 18.375 C3.24700894 21.87848957 1.6545508 22.78418903 -2.875 23.375 C-6.87153796 22.89541545 -8.90459308 21.53260567 -12 19 C-14.59036348 15.58542996 -14.43108741 12.16717829 -14 8 C-10.44282923 1.49896377 -7.48653282 -0.76134232 0 0 Z " fill="#8AB1DB" transform="translate(31,62)"/>
<path d="M0 0 C2.82424288 2.19022918 4.41508603 3.83017207 6 7 C6.12869215 11.67887885 5.61044587 15.11207874 2.9375 19 C-0.72348878 21.4925881 -3.57174742 22.44195867 -8 22 C-11.52679635 20.30191287 -13.41087074 19.0175869 -15.375 15.625 C-16.39865145 11.32566391 -16.6187747 8.29648033 -14.6875 4.25 C-10.80324628 -0.92900495 -6.0003408 -0.96656207 0 0 Z " fill="#B1CFEA" transform="translate(85,12)"/>
<path d="M0 0 C0.495 0.66 0.99 1.32 1.5 2 C8.55846773 10.47016127 15.38431512 16.5684011 26.1875 19.5 C32.14431075 21.1556974 35.32650415 23.62471557 38.9375 28.75 C40.7618937 34.33049838 39.97149214 39.54089134 37.4375 44.8125 C34.89450723 48.77440902 31.42043838 50.61189972 27 52 C21.00831874 52.69902948 21.00831874 52.69902948 17.796875 50.47265625 C17.20390625 49.98667969 16.6109375 49.50070313 16 49 C16.88042969 49.06960937 17.76085937 49.13921875 18.66796875 49.2109375 C25.07244805 49.76447753 25.07244805 49.76447753 30.94140625 47.76953125 C34.84001232 43.05629108 35.42616576 38.32053423 35.33203125 32.44140625 C35.14706531 29.76165947 35.14706531 29.76165947 33.0625 27.0625 C29.86154774 24.90675664 27.10921195 23.89287796 23.453125 22.78515625 C14.35532471 19.87328068 6.62915533 14.84670137 1 7 C0.22265625 3.1796875 0.22265625 3.1796875 0 0 Z " fill="#1D4264" transform="translate(54,38)"/>
<path d="M0 0 C3.83446494 1.88036262 6.30930647 4.29667952 7.921875 8.2734375 C8.39748907 9.94865596 8.83675627 11.63455151 9.2421875 13.328125 C10.33105135 17.16721198 12.191481 20.48567813 14.109375 23.96875 C14.40328125 24.6390625 14.6971875 25.309375 15 26 C14.67 26.66 14.34 27.32 14 28 C10.3160642 22.4182791 7.2709548 16.6960129 4.41186523 10.66162109 C2.89977994 7.20403538 2.89977994 7.20403538 0 5 C-0.33 6.32 -0.66 7.64 -1 9 C-2.65 9 -4.3 9 -6 9 C-6.33 7.35 -6.66 5.7 -7 4 C-11.32064189 7.86630308 -11.32064189 7.86630308 -13.2109375 13.10546875 C-12.93586734 15.4964141 -12.93586734 15.4964141 -12 19 C-11.814375 19.825 -11.62875 20.65 -11.4375 21.5 C-11.293125 21.995 -11.14875 22.49 -11 23 C-13.6645814 21.98929671 -14.95195872 21.0600516 -16.75 18.8125 C-18.34854267 15.21577899 -18.47971981 12.90628989 -18 9 C-14.03562599 1.36490932 -8.46757677 -1.72541376 0 0 Z " fill="#D1E0EB" transform="translate(35,10)"/>
<path d="M0 0 C3.98444521 2.06600863 6.62808993 4.20899844 9 8 C9.90157356 12.56377936 10.07086061 17.12353782 7.72265625 21.23828125 C5.12029584 24.31148438 2.98517861 26.7132923 -1.13671875 27.30859375 C-5.80787788 27.54465539 -9.18925685 27.46668741 -13 24.5625 C-16.02623638 21.50751078 -17.38967273 18.54469102 -18.046875 14.30859375 C-17.93917853 9.00454236 -15.19377545 5.3643148 -11.8125 1.5 C-7.8169385 -0.63096613 -4.43439515 -0.78208027 0 0 Z M-14 8 C-15.76035962 11.52071924 -14.92676623 15.27362745 -14 19 C-11.42862992 22.63016953 -9.82856925 23.75896167 -5.5625 25 C-1.38189691 25 0.58765141 24.40415469 4 22 C6.6859484 17.9710774 7.61443138 14.81304584 7 10 C5.33237678 6.50593231 4.25993978 5.17329319 1 3 C-5.60575203 1.93636196 -9.83170199 2.3526285 -14 8 Z " fill="#18284C" transform="translate(84,9)"/>
<path d="M0 0 C13.00325903 5.86872753 19.03364584 21.63259749 24.7734375 33.76953125 C25.80012145 36.13682991 25.80012145 36.13682991 28 37 C32.92796791 37.37192211 36.16878955 37.28389467 40 34 C41.90453906 29.81001406 42.45418841 25.5484299 43 21 C45.49005677 23.49005677 45.29703766 24.37470732 45.3125 27.8125 C45.22133143 32.03056576 44.80780159 34.69080527 42 38 C38.96466414 40.71860516 37.06263921 41.39300962 33 41.3125 C32.154375 41.30863281 31.30875 41.30476563 30.4375 41.30078125 C27.64289174 40.95593376 26.26448697 40.69951354 24 39 C22.58409619 36.52727727 21.36540649 34.14325322 20.1875 31.5625 C15.15522362 21.06580621 9.27220293 12.01531765 1.72265625 3.1171875 C0 1 0 1 0 0 Z " fill="#5D8DC8" transform="translate(45,45)"/>
<path d="M0 0 C3.9668392 3.79436793 3.9668392 3.79436793 4.0546875 6.98828125 C3.73511256 11.12191362 3.33073524 13.51893055 0.9375 17 C-2.70117327 19.47739456 -5.59112157 20.48128108 -10 20 C-12.37475065 18.91554727 -13.95982022 17.68314832 -16 16 C-15.401875 15.74347656 -14.80375 15.48695312 -14.1875 15.22265625 C-11.18921343 13.54682822 -9.62336717 11.25228155 -7.5625 8.55859375 C-6 7 -6 7 -3.890625 6.4765625 C-3.26671875 6.31929687 -2.6428125 6.16203125 -2 6 C-0.6954344 3.00384054 -0.6954344 3.00384054 0 0 Z " fill="#87AED9" transform="translate(87,14)"/>
<path d="M0 0 C3.43403788 2.00011167 6.21175747 4.42351494 8 8 C8.49893401 12.36210879 9.00145931 16.96102884 7.0234375 20.98828125 C4.23150295 24.43966047 1.23171351 26.57098299 -3.11328125 27.40625 C-7.75399241 27.60407783 -10.38935043 27.1773017 -14 24.125 C-17.45487901 20.81407428 -18.21977609 18.5958283 -18.4375 13.8125 C-18.41655993 8.5007023 -17.20033382 5.97038536 -13.5078125 2.2421875 C-9.58062405 -0.99316464 -4.84207133 -0.78773996 0 0 Z M-14 6 C-16.52013745 9.48018981 -16.36793894 12.80549604 -16 17 C-14.20957902 21.14623807 -12.12768764 23.17613802 -8 25 C-4.01751003 25.5931368 -2.32359071 25.17424115 1.25 23.25 C4.50563026 20.65843512 4.50563026 20.65843512 6 17 C6.56610039 11.2369568 6.56610039 11.2369568 4.25 6.125 C0.91332102 2.97369207 -0.83711123 2.12686059 -5.4375 1.625 C-9.62750939 2.06605362 -11.093893 3.01086137 -14 6 Z " fill="#162649" transform="translate(33,60)"/>
<path d="M0 0 C0.99 0.66 1.98 1.32 3 2 C3.1875 5.625 3.1875 5.625 3 9 C1.989375 8.690625 0.97875 8.38125 -0.0625 8.0625 C-3.88693939 7.59054974 -3.88693939 7.59054974 -5.91796875 9.4921875 C-7.12317491 10.771916 -8.29312346 12.08594881 -9.421875 13.43359375 C-11 15 -11 15 -14 15 C-14.45675183 9.29060212 -13.62105556 6.44872541 -10 2 C-6.31282562 -0.45811625 -4.35654296 -0.31118164 0 0 Z " fill="#CAD9E6" transform="translate(31,62)"/>
<path d="M0 0 C2.1875 -0.375 2.1875 -0.375 5 0 C9.53156234 4.5756294 11.84492372 9.52193738 14.25 15.4375 C14.600625 16.25798828 14.95125 17.07847656 15.3125 17.92382812 C17.27627856 22.65577915 18.53275138 26.8946217 19 32 C11.92059618 25.93193958 9.14146616 15.89780844 6.046875 7.375 C4.65230492 4.21119921 2.51996334 2.32101887 0 0 Z " fill="#315473" transform="translate(35,10)"/>
<path d="M0 0 C4.17904306 3.5216655 5.99476736 7.68747527 8.1875 12.5625 C8.54263672 13.33013672 8.89777344 14.09777344 9.26367188 14.88867188 C10.65104207 17.90824231 11.94801648 20.84404944 13 24 C16.29701062 25.34807677 19.7354961 25.10070113 23.25 25.0625 C24.86648437 25.04896484 24.86648437 25.04896484 26.515625 25.03515625 C27.74539062 25.01775391 27.74539062 25.01775391 29 25 C27.93359375 26.5 27.93359375 26.5 26 28 C22.78515625 28.25 22.78515625 28.25 19.0625 28 C17.22365234 27.9071875 17.22365234 27.9071875 15.34765625 27.8125 C11.1429528 26.79198854 10.26577201 25.62622463 8 22 C3.94919352 14.98027945 0.16492381 8.24619049 0 0 Z " fill="#1F476F" transform="translate(56,60)"/>
<path d="M0 0 C2.49872236 3.74808354 2.14884071 5.35772991 1.52734375 9.65234375 C0.51635109 14.15313329 -1.01708538 17.54298883 -4.796875 20.3203125 C-9.20141333 22.76158762 -12.91571684 23.68442273 -18 23 C-20.203125 21.47265625 -20.203125 21.47265625 -22 20 C-21.11957031 20.06960937 -20.23914063 20.13921875 -19.33203125 20.2109375 C-12.92755195 20.76447753 -12.92755195 20.76447753 -7.05859375 18.76953125 C-5.06697947 16.36175876 -3.9831259 13.94937771 -3 11 C-2.34 11 -1.68 11 -1 11 C-1.01160156 10.37351562 -1.02320312 9.74703125 -1.03515625 9.1015625 C-1.04417969 8.28429687 -1.05320312 7.46703125 -1.0625 6.625 C-1.07410156 5.81289062 -1.08570312 5.00078125 -1.09765625 4.1640625 C-1 2 -1 2 0 0 Z " fill="#173A5D" transform="translate(92,67)"/>
<path d="M0 0 C0 1.98 0 3.96 0 6 C-1.5159375 5.5359375 -1.5159375 5.5359375 -3.0625 5.0625 C-6.8907407 4.60380508 -6.8907407 4.60380508 -9.0234375 6.4921875 C-10.77126531 8.26855128 -12.41963225 10.0737767 -14 12 C-14.33 11.34 -14.66 10.68 -15 10 C-11.98901456 2.30525943 -8.30852099 -0.65164871 0 0 Z " fill="#B0CEEB" transform="translate(34,65)"/>
<path d="M0 0 C1.21236328 0.02707031 1.21236328 0.02707031 2.44921875 0.0546875 C3.37154297 0.08949219 3.37154297 0.08949219 4.3125 0.125 C4.3125 0.785 4.3125 1.445 4.3125 2.125 C2.45625 2.6509375 2.45625 2.6509375 0.5625 3.1875 C-4.37023742 5.00023743 -5.49170524 7.48004955 -7.6875 12.125 C-8.3475 12.785 -9.0075 13.445 -9.6875 14.125 C-10.6875 13.125 -10.6875 13.125 -10.9375 10.375 C-10.65692185 6.72748409 -9.86418643 5.02724857 -7.6875 2.125 C-4.48369983 -0.01086678 -3.66810033 -0.10632175 0 0 Z " fill="#D0DFEB" transform="translate(79.6875,11.875)"/>
<path d="M0 0 C0 0.66 0 1.32 0 2 C-0.61488281 2.13277344 -1.22976562 2.26554688 -1.86328125 2.40234375 C-3.07564453 2.66724609 -3.07564453 2.66724609 -4.3125 2.9375 C-5.11300781 3.11152344 -5.91351563 3.28554687 -6.73828125 3.46484375 C-9.145401 3.99886159 -9.145401 3.99886159 -12 5 C-13.65579836 8.03563033 -14.14714955 10.86141899 -14.5 14.25 C-14.665 15.4875 -14.83 16.725 -15 18 C-15.66 18.33 -16.32 18.66 -17 19 C-18.34118896 13.63524416 -17.98416273 10.6217163 -15.22265625 5.80078125 C-11.0493466 -0.34585053 -6.91007265 -0.54196648 0 0 Z " fill="#19284B" transform="translate(84,9)"/>
<path d="M0 0 C4.75659256 0.5488376 7.6560804 2.72966364 10.9453125 6.125 C12.7193068 9.18434346 12.35296152 11.15023091 11.9375 14.625 C11.81761719 15.70265625 11.69773437 16.7803125 11.57421875 17.890625 C11.46722656 18.71046875 11.36023438 19.5303125 11.25 20.375 C10.92 20.375 10.59 20.375 10.25 20.375 C10.23582031 19.71113281 10.22164062 19.04726562 10.20703125 18.36328125 C9.97033845 13.98126581 9.75888683 11.12242752 7.25 7.4375 C3.45355286 4.82744259 -0.32691727 3.56027054 -4.75 2.375 C-2.75 0.375 -2.75 0.375 0 0 Z " fill="#224A73" transform="translate(79.75,57.625)"/>
<path d="M0 0 C0.33 0 0.66 0 1 0 C0.8873346 4.70121972 0.64980462 8.05482965 -2.0625 12 C-5.70117327 14.47739456 -8.59112157 15.48128108 -13 15 C-15.37475065 13.91554727 -16.95982022 12.68314832 -19 11 C-18.34 10.67 -17.68 10.34 -17 10 C-16.34 10.33 -15.68 10.66 -15 11 C-11.25500864 11.08204989 -7.65953153 10.81076116 -4 10 C-1.18754515 7.02210663 -0.57210294 4.00472059 0 0 Z " fill="#5987C0" transform="translate(90,19)"/>
<path d="M0 0 C0.33 0.99 0.66 1.98 1 3 C3.01508358 3.73323796 3.01508358 3.73323796 5 4 C3.68 4 2.36 4 1 4 C0.7525 4.5775 0.505 5.155 0.25 5.75 C-1.22820473 8.41076851 -2.58314039 10.13556544 -5 12 C-7.75 11.75 -7.75 11.75 -10 11 C-9.34 10.67 -8.68 10.34 -8 10 C-7.731875 9.4225 -7.46375 8.845 -7.1875 8.25 C-5.61652171 5.27340956 -3.42853089 3.30399084 -1 1 C-0.67 0.67 -0.34 0.34 0 0 Z " fill="#9BBFE3" transform="translate(80,17)"/>
<path d="M0 0 C0.33 0 0.66 0 1 0 C1.41776675 6.05761794 1.12264203 9.19025097 -3 14 C-6.20785018 16.35242347 -9.09649252 16.4684209 -13 16 C-16.375 14 -16.375 14 -19 12 C-18.34 11.67 -17.68 11.34 -17 11 C-16.01 11.33 -15.02 11.66 -14 12 C-8.4994323 12.55243191 -8.4994323 12.55243191 -3.625 10.5 C-1.40376239 7.08271137 -0.79851198 3.99255989 0 0 Z " fill="#5581B9" transform="translate(38,69)"/>
<path d="M0 0 C0.66 0 1.32 0 2 0 C1.7090874 3.39398034 0.97716583 5.03113751 -1.0625 7.8125 C-5.04105328 10.77525245 -7.14288276 10.4116201 -12 10 C-11.525625 9.54625 -11.05125 9.0925 -10.5625 8.625 C-8.90972192 7.06741796 -8.90972192 7.06741796 -8 5 C-7.401875 4.87625 -6.80375 4.7525 -6.1875 4.625 C-3.30783348 3.80223814 -2.0529616 2.12139365 0 0 Z " fill="#7AA4D4" transform="translate(36,72)"/>
<path d="M0 0 C2.71120048 2.34482204 3.89848289 3.94776706 4.24609375 7.55078125 C4.24962423 10.04683325 4.17402568 12.5104659 4 15 C3.01 15.33 2.02 15.66 1 16 C1.02320312 15.39671875 1.04640625 14.7934375 1.0703125 14.171875 C1.08835937 13.37265625 1.10640625 12.5734375 1.125 11.75 C1.14820312 10.96109375 1.17140625 10.1721875 1.1953125 9.359375 C0.97711178 6.72351026 0.42967069 5.21551617 -1 3 C-3.90092502 1.06604999 -4.89674737 0.69868059 -8.1875 0.375 C-9.445625 0.25125 -10.70375 0.1275 -12 0 C-12 -0.33 -12 -0.66 -12 -1 C-7.33679812 -1.91435331 -4.17411381 -2.48190551 0 0 Z " fill="#18294D" transform="translate(89,12)"/>
<path d="M0 0 C0.763125 0.20625 1.52625 0.4125 2.3125 0.625 C-0.6875 2.625 -0.6875 2.625 -2.6875 2.625 C-2.935 3.223125 -3.1825 3.82125 -3.4375 4.4375 C-4.89614875 6.99013531 -6.12376682 8.19232558 -8.6875 9.625 C-10.9375 9.3125 -10.9375 9.3125 -12.6875 8.625 C-12.6875 7.965 -12.6875 7.305 -12.6875 6.625 C-11.26171875 5.40625 -11.26171875 5.40625 -9.375 4.125 C-8.76011719 3.7021875 -8.14523438 3.279375 -7.51171875 2.84375 C-2.69280275 -0.37573992 -2.69280275 -0.37573992 0 0 Z " fill="#9ABEE2" transform="translate(30.6875,70.375)"/>
<path d="M0 0 C2.1875 -0.375 2.1875 -0.375 5 0 C8.97605119 3.79532159 10.64237981 6.39728363 11 12 C11.03622333 13.66627298 11.04899842 15.33405374 11 17 C10.34 16.67 9.68 16.34 9 16 C8.5242221 14.43341424 8.11814903 12.84531246 7.75 11.25 C6.29442626 5.97825884 4.43987386 4.05857977 0 1 C0 0.67 0 0.34 0 0 Z " fill="#395A79" transform="translate(35,10)"/>
<path d="M0 0 C1 3 1 3 -0.25 6.125 C-3.91963333 9.96143484 -6.59685517 9.79045243 -11.734375 9.9921875 C-12.48203125 9.99476562 -13.2296875 9.99734375 -14 10 C-14 9.67 -14 9.34 -14 9 C-12.35 9 -10.7 9 -9 9 C-9 8.34 -9 7.68 -9 7 C-7.03125 5.2734375 -7.03125 5.2734375 -4.5 3.375 C-3.24703125 2.42753906 -3.24703125 2.42753906 -1.96875 1.4609375 C-0.99421875 0.73777344 -0.99421875 0.73777344 0 0 Z " fill="#749FD2" transform="translate(89,21)"/>
<path d="M0 0 C-0.33 1.32 -0.66 2.64 -1 4 C-2.65 4 -4.3 4 -6 4 C-6.33 2.68 -6.66 1.36 -7 0 C-4.3333581 -1.33332095 -2.83319697 -0.67102033 0 0 Z " fill="#DBE9F3" transform="translate(35,15)"/>
<path d="M0 0 C0.66 0.33 1.32 0.66 2 1 C-1.75 6.875 -1.75 6.875 -4 8 C-6.6723621 8.13415472 -9.32250488 8.04318541 -12 8 C-12 7.67 -12 7.34 -12 7 C-10.948125 6.95875 -9.89625 6.9175 -8.8125 6.875 C-3.81527945 5.72809692 -2.87714602 4.09775342 0 0 Z " fill="#6D9AD0" transform="translate(36,74)"/>
<path d="M0 0 C0.99 0.33 1.98 0.66 3 1 C5.06145107 1.068991 7.12501401 1.08467727 9.1875 1.0625 C10.27417969 1.05347656 11.36085938 1.04445313 12.48046875 1.03515625 C13.31191406 1.02355469 14.14335938 1.01195313 15 1 C13.91796875 2.51953125 13.91796875 2.51953125 12 4 C8.86328125 4.07421875 8.86328125 4.07421875 5.3125 3.6875 C4.13300781 3.56761719 2.95351562 3.44773437 1.73828125 3.32421875 C0.83464844 3.21722656 -0.06898437 3.11023438 -1 3 C-0.67 2.01 -0.34 1.02 0 0 Z " fill="#2B5683" transform="translate(70,84)"/>
<path d="M0 0 C0.94875 0.04125 1.8975 0.0825 2.875 0.125 C2.545 1.115 2.215 2.105 1.875 3.125 C2.514375 3.24875 3.15375 3.3725 3.8125 3.5 C4.493125 3.70625 5.17375 3.9125 5.875 4.125 C6.205 4.785 6.535 5.445 6.875 6.125 C2.875 4.79166667 -1.125 3.45833333 -5.125 2.125 C-3.125 0.125 -3.125 0.125 0 0 Z " fill="#264E74" transform="translate(80.125,57.875)"/>
<path d="M0 0 C-1.1446875 0.8971875 -1.1446875 0.8971875 -2.3125 1.8125 C-4.3483575 3.46959332 -6.1978279 5.10297674 -8 7 C-8.6875 5.1875 -8.6875 5.1875 -9 3 C-6.75886401 -0.69128281 -4.00118708 -0.26674581 0 0 Z " fill="#284C6D" transform="translate(26,10)"/>
<path d="M0 0 C0.66 0.33 1.32 0.66 2 1 C2 3 2 3 0.125 5 C-0.57625 5.66 -1.2775 6.32 -2 7 C-2.66 7.66 -3.32 8.32 -4 9 C-4.8125 7.3125 -4.8125 7.3125 -5 5 C-2.5625 2.25 -2.5625 2.25 0 0 Z " fill="#1E2E50" transform="translate(21,61)"/>
<path d="M0 0 C0.33 0 0.66 0 1 0 C1 2.97 1 5.94 1 9 C0.01 9.495 0.01 9.495 -1 10 C-2.25 3.375 -2.25 3.375 0 0 Z " fill="#132143" transform="translate(68,18)"/>
<path d="M0 0 C1.9375 0.75 1.9375 0.75 4 2 C4.75 4.125 4.75 4.125 5 6 C4.01 6 3.02 6 2 6 C1.34 5.34 0.68 4.68 0 4 C0 2.68 0 1.36 0 0 Z " fill="#193F63" transform="translate(65,80)"/>
<path d="M0 0 C4.75 0.75 4.75 0.75 7 3 C6.625 5.125 6.625 5.125 6 7 C5.566875 6.360625 5.13375 5.72125 4.6875 5.0625 C3.08760823 2.73253997 3.08760823 2.73253997 0 2 C0 1.34 0 0.68 0 0 Z " fill="#173D61" transform="translate(82,59)"/>
<path d="M0 0 C2.35953094 2.35953094 2.49141413 3.77895617 3 7 C2.01 7 1.02 7 0 7 C-0.38133299 5.0085944 -0.71325582 3.00720923 -1 1 C-0.67 0.67 -0.34 0.34 0 0 Z " fill="#17395A" transform="translate(46,21)"/>
<path d="M0 0 C0 0.99 0 1.98 0 3 C-3.63 2.34 -7.26 1.68 -11 1 C-11 0.67 -11 0.34 -11 0 C-3.57142857 -1.28571429 -3.57142857 -1.28571429 0 0 Z " fill="#364666" transform="translate(88,11)"/>
<path d="M0 0 C1.9375 0.625 1.9375 0.625 4 2 C4.75 5.125 4.75 5.125 5 8 C2.74754119 5.31158141 1.11786042 3.35358125 0 0 Z " fill="#16395B" transform="translate(52,58)"/>
<path d="M0 0 C0.66 0 1.32 0 2 0 C1.25 5.75 1.25 5.75 -1 8 C-1.04241723 5.66705225 -1.04092937 3.33297433 -1 1 C-0.67 0.67 -0.34 0.34 0 0 Z " fill="#183C5E" transform="translate(16,15)"/>
</svg>
